<svg xmlns="http://www.w3.org/2000/svg" xmlns:xlink="http://www.w3.org/1999/xlink" contentStyleType="text/css" data-diagram-type="DESCRIPTION" height="761.4583px" preserveAspectRatio="none" style="width:1634px;height:761px;" version="1.1" viewBox="0 0 1634 761" width="1634.375px" zoomAndPan="magnify"><defs/><g><!--cluster apps--><g class="cluster" data-entity="apps" data-source-line="3" data-uid="ent0002" id="cluster_apps"><path d="M138.5417,16.6667 L180.6458,16.6667 A6.25,6.25 0 0 1 184.8124,20.8333 L192.1041,47.8841 L651.0417,47.8841 A4.1667,4.1667 0 0 1 655.2083,52.0508 L655.2083,366.5625 A4.1667,4.1667 0 0 1 651.0417,370.7292 L138.5417,370.7292 A4.1667,4.1667 0 0 1 134.375,366.5625 L134.375,20.8333 A4.1667,4.1667 0 0 1 138.5417,16.6667" fill="none" style="stroke:#2FA4E7;stroke-width:2.0833;"/><line style="stroke:#2FA4E7;stroke-width:2.0833;" x1="134.375" x2="192.1041" y1="47.8841" y2="47.8841"/><text fill="#2FA4E7" font-family="'Verdana'" font-size="12.5" font-weight="bold" lengthAdjust="spacing" textLength="33.7708" x="143.75" y="35.5611">apps</text></g><!--cluster packages--><g class="cluster" data-entity="packages" data-source-line="13" data-uid="ent0010" id="cluster_packages"><path d="M684.375,16.6667 L759.1146,16.6667 A6.25,6.25 0 0 1 763.2813,20.8333 L770.5729,47.8841 L1617.7083,47.8841 A4.1667,4.1667 0 0 1 1621.875,52.0508 L1621.875,745.6354 A4.1667,4.1667 0 0 1 1617.7083,749.8021 L684.375,749.8021 A4.1667,4.1667 0 0 1 680.2083,745.6354 L680.2083,20.8333 A4.1667,4.1667 0 0 1 684.375,16.6667" fill="none" style="stroke:#2FA4E7;stroke-width:2.0833;"/><line style="stroke:#2FA4E7;stroke-width:2.0833;" x1="680.2083" x2="770.5729" y1="47.8841" y2="47.8841"/><text fill="#2FA4E7" font-family="'Verdana'" font-size="12.5" font-weight="bold" lengthAdjust="spacing" textLength="66.4063" x="689.5833" y="35.5611">packages</text></g><!--cluster marketplace--><g class="cluster" data-entity="marketplace" data-source-line="49" data-uid="ent0044" id="cluster_marketplace"><path d="M20.8333,395.7292 L117.1122,395.7292 A6.25,6.25 0 0 1 121.2789,399.8958 L128.5706,426.9466 L651.0417,426.9466 A4.1667,4.1667 0 0 1 655.2083,431.1133 L655.2083,626.9167 A4.1667,4.1667 0 0 1 651.0417,631.0833 L20.8333,631.0833 A4.1667,4.1667 0 0 1 16.6667,626.9167 L16.6667,399.8958 A4.1667,4.1667 0 0 1 20.8333,395.7292" fill="none" style="stroke:#2FA4E7;stroke-width:2.0833;"/><line style="stroke:#2FA4E7;stroke-width:2.0833;" x1="16.6667" x2="128.5706" y1="426.9466" y2="426.9466"/><text fill="#2FA4E7" font-family="'Verdana'" font-size="12.5" font-weight="bold" lengthAdjust="spacing" textLength="87.9456" x="26.0417" y="414.6236">marketplace</text></g><!--entity api--><g class="entity" data-entity="api" data-source-line="4" data-uid="ent0003" id="entity_api"><rect fill="none" height="56.2174" rx="4.1667" ry="4.1667" style="stroke:#2FA4E7;stroke-width:1.0417;" width="71.1507" x="229.0104" y="60.4167"/><rect fill="none" height="10.4167" style="stroke:#2FA4E7;stroke-width:1.0417;" width="15.625" x="279.3278" y="65.625"/><rect fill="none" height="2.0833" style="stroke:#2FA4E7;stroke-width:1.0417;" width="4.1667" x="277.2445" y="67.7083"/><rect fill="none" height="2.0833" style="stroke:#2FA4E7;stroke-width:1.0417;" width="4.1667" x="277.2445" y="71.875"/><text fill="#2FA4E7" font-family="'Verdana'" font-size="12.5" lengthAdjust="spacing" textLength="19.0674" x="249.8438" y="98.0611">api</text></g><!--entity app--><g class="entity" data-entity="app" data-source-line="5" data-uid="ent0004" id="entity_app"><rect fill="none" height="56.2174" rx="4.1667" ry="4.1667" style="stroke:#2FA4E7;stroke-width:1.0417;" width="75.6124" x="373.6563" y="60.4167"/><rect fill="none" height="10.4167" style="stroke:#2FA4E7;stroke-width:1.0417;" width="15.625" x="428.4353" y="65.625"/><rect fill="none" height="2.0833" style="stroke:#2FA4E7;stroke-width:1.0417;" width="4.1667" x="426.352" y="67.7083"/><rect fill="none" height="2.0833" style="stroke:#2FA4E7;stroke-width:1.0417;" width="4.1667" x="426.352" y="71.875"/><text fill="#2FA4E7" font-family="'Verdana'" font-size="12.5" lengthAdjust="spacing" textLength="23.5291" x="394.4896" y="98.0611">app</text></g><!--entity web--><g class="entity" data-entity="web" data-source-line="6" data-uid="ent0005" id="entity_web"><rect fill="none" height="56.2174" rx="4.1667" ry="4.1667" style="stroke:#2FA4E7;stroke-width:1.0417;" width="77.9317" x="561.0313" y="60.4167"/><rect fill="none" height="10.4167" style="stroke:#2FA4E7;stroke-width:1.0417;" width="15.625" x="618.1296" y="65.625"/><rect fill="none" height="2.0833" style="stroke:#2FA4E7;stroke-width:1.0417;" width="4.1667" x="616.0463" y="67.7083"/><rect fill="none" height="2.0833" style="stroke:#2FA4E7;stroke-width:1.0417;" width="4.1667" x="616.0463" y="71.875"/><text fill="#2FA4E7" font-family="'Verdana'" font-size="12.5" lengthAdjust="spacing" textLength="25.8484" x="581.8646" y="98.0611">web</text></g><!--entity admin-panel (R)--><g class="entity" data-entity="admin-panel .R." data-source-line="7" data-uid="ent0006" id="entity_admin-panel .R."><rect fill="none" height="56.2174" rx="4.1667" ry="4.1667" style="stroke:#2FA4E7;stroke-width:1.0417;" width="152.8524" x="150.6563" y="179.1354"/><rect fill="none" height="10.4167" style="stroke:#2FA4E7;stroke-width:1.0417;" width="15.625" x="282.6753" y="184.3437"/><rect fill="none" height="2.0833" style="stroke:#2FA4E7;stroke-width:1.0417;" width="4.1667" x="280.592" y="186.4271"/><rect fill="none" height="2.0833" style="stroke:#2FA4E7;stroke-width:1.0417;" width="4.1667" x="280.592" y="190.5937"/><text fill="#2FA4E7" font-family="'Verdana'" font-size="12.5" lengthAdjust="spacing" textLength="100.769" x="171.4896" y="216.7799">admin-panel (R)</text></g><!--entity devtools (R)--><g class="entity" data-entity="devtools .R." data-source-line="8" data-uid="ent0007" id="entity_devtools .R."><rect fill="none" height="56.2174" rx="4.1667" ry="4.1667" style="stroke:#2FA4E7;stroke-width:1.0417;" width="127.6998" x="340.3125" y="179.1354"/><rect fill="none" height="10.4167" style="stroke:#2FA4E7;stroke-width:1.0417;" width="15.625" x="447.179" y="184.3437"/><rect fill="none" height="2.0833" style="stroke:#2FA4E7;stroke-width:1.0417;" width="4.1667" x="445.0956" y="186.4271"/><rect fill="none" height="2.0833" style="stroke:#2FA4E7;stroke-width:1.0417;" width="4.1667" x="445.0956" y="190.5937"/><text fill="#2FA4E7" font-family="'Verdana'" font-size="12.5" lengthAdjust="spacing" textLength="75.6165" x="361.1458" y="216.7799">devtools (R)</text></g><!--entity ui-builder (R)--><g class="entity" data-entity="ui-builder .R." data-source-line="9" data-uid="ent0008" id="entity_ui-builder .R."><rect fill="none" height="56.2174" rx="4.1667" ry="4.1667" style="stroke:#2FA4E7;stroke-width:1.0417;" width="133.9681" x="504.8958" y="179.1354"/><rect fill="none" height="10.4167" style="stroke:#2FA4E7;stroke-width:1.0417;" width="15.625" x="618.0306" y="184.3437"/><rect fill="none" height="2.0833" style="stroke:#2FA4E7;stroke-width:1.0417;" width="4.1667" x="615.9473" y="186.4271"/><rect fill="none" height="2.0833" style="stroke:#2FA4E7;stroke-width:1.0417;" width="4.1667" x="615.9473" y="190.5937"/><text fill="#2FA4E7" font-family="'Verdana'" font-size="12.5" lengthAdjust="spacing" textLength="81.8848" x="525.7292" y="216.7799">ui-builder (R)</text></g><!--entity marketplace (R)--><g class="entity" data-entity="marketplace .R." data-source-line="10" data-uid="ent0009" id="entity_marketplace .R."><rect fill="none" height="56.2174" rx="4.1667" ry="4.1667" style="stroke:#2FA4E7;stroke-width:1.0417;" width="152.9317" x="150.6146" y="297.8437"/><rect fill="none" height="10.4167" style="stroke:#2FA4E7;stroke-width:1.0417;" width="15.625" x="282.713" y="303.0521"/><rect fill="none" height="2.0833" style="stroke:#2FA4E7;stroke-width:1.0417;" width="4.1667" x="280.6296" y="305.1354"/><rect fill="none" height="2.0833" style="stroke:#2FA4E7;stroke-width:1.0417;" width="4.1667" x="280.6296" y="309.3021"/><text fill="#2FA4E7" font-family="'Verdana'" font-size="12.5" lengthAdjust="spacing" textLength="100.8484" x="171.4479" y="335.4882">marketplace (R)</text></g><!--entity "ai"--><g class="entity" data-entity=".ai." data-source-line="14" data-uid="ent0011" id="entity_.ai."><rect fill="none" height="56.2174" rx="4.1667" ry="4.1667" style="stroke:#2FA4E7;stroke-width:1.0417;" width="63.2161" x="696.5208" y="60.4167"/><rect fill="none" height="10.4167" style="stroke:#2FA4E7;stroke-width:1.0417;" width="15.625" x="738.9036" y="65.625"/><rect fill="none" height="2.0833" style="stroke:#2FA4E7;stroke-width:1.0417;" width="4.1667" x="736.8203" y="67.7083"/><rect fill="none" height="2.0833" style="stroke:#2FA4E7;stroke-width:1.0417;" width="4.1667" x="736.8203" y="71.875"/><text fill="#2FA4E7" font-family="'Verdana'" font-size="12.5" lengthAdjust="spacing" textLength="11.1328" x="717.3542" y="98.0611">ai</text></g><!--entity "analytics"--><g class="entity" data-entity=".analytics." data-source-line="15" data-uid="ent0012" id="entity_.analytics."><rect fill="none" height="56.2174" rx="4.1667" ry="4.1667" style="stroke:#2FA4E7;stroke-width:1.0417;" width="107.9549" x="796.0208" y="60.4167"/><rect fill="none" height="10.4167" style="stroke:#2FA4E7;stroke-width:1.0417;" width="15.625" x="883.1424" y="65.625"/><rect fill="none" height="2.0833" style="stroke:#2FA4E7;stroke-width:1.0417;" width="4.1667" x="881.0591" y="67.7083"/><rect fill="none" height="2.0833" style="stroke:#2FA4E7;stroke-width:1.0417;" width="4.1667" x="881.0591" y="71.875"/><text fill="#2FA4E7" font-family="'Verdana'" font-size="12.5" lengthAdjust="spacing" textLength="55.8716" x="816.8542" y="98.0611">analytics</text></g><!--entity "api-key"--><g class="entity" data-entity=".api-key." data-source-line="16" data-uid="ent0013" id="entity_.api-key."><rect fill="none" height="56.2174" rx="4.1667" ry="4.1667" style="stroke:#2FA4E7;stroke-width:1.0417;" width="97.9879" x="940.5938" y="60.4167"/><rect fill="none" height="10.4167" style="stroke:#2FA4E7;stroke-width:1.0417;" width="15.625" x="1017.7483" y="65.625"/><rect fill="none" height="2.0833" style="stroke:#2FA4E7;stroke-width:1.0417;" width="4.1667" x="1015.665" y="67.7083"/><rect fill="none" height="2.0833" style="stroke:#2FA4E7;stroke-width:1.0417;" width="4.1667" x="1015.665" y="71.875"/><text fill="#2FA4E7" font-family="'Verdana'" font-size="12.5" lengthAdjust="spacing" textLength="45.9045" x="961.4271" y="98.0611">api-key</text></g><!--entity "auth"--><g class="entity" data-entity=".auth." data-source-line="17" data-uid="ent0014" id="entity_.auth."><rect fill="none" height="56.2174" rx="4.1667" ry="4.1667" style="stroke:#2FA4E7;stroke-width:1.0417;" width="80.4891" x="1075.3854" y="60.4167"/><rect fill="none" height="10.4167" style="stroke:#2FA4E7;stroke-width:1.0417;" width="15.625" x="1135.0412" y="65.625"/><rect fill="none" height="2.0833" style="stroke:#2FA4E7;stroke-width:1.0417;" width="4.1667" x="1132.9578" y="67.7083"/><rect fill="none" height="2.0833" style="stroke:#2FA4E7;stroke-width:1.0417;" width="4.1667" x="1132.9578" y="71.875"/><text fill="#2FA4E7" font-family="'Verdana'" font-size="12.5" lengthAdjust="spacing" textLength="28.4058" x="1096.2188" y="98.0611">auth</text></g><!--entity "auth-abac"--><g class="entity" data-entity=".auth-abac." data-source-line="18" data-uid="ent0015" id="entity_.auth-abac."><rect fill="none" height="56.2174" rx="4.1667" ry="4.1667" style="stroke:#2FA4E7;stroke-width:1.0417;" width="115.1265" x="1192.4375" y="60.4167"/><rect fill="none" height="10.4167" style="stroke:#2FA4E7;stroke-width:1.0417;" width="15.625" x="1286.7307" y="65.625"/><rect fill="none" height="2.0833" style="stroke:#2FA4E7;stroke-width:1.0417;" width="4.1667" x="1284.6474" y="67.7083"/><rect fill="none" height="2.0833" style="stroke:#2FA4E7;stroke-width:1.0417;" width="4.1667" x="1284.6474" y="71.875"/><text fill="#2FA4E7" font-family="'Verdana'" font-size="12.5" lengthAdjust="spacing" textLength="63.0432" x="1213.2708" y="98.0611">auth-abac</text></g><!--entity "auth-hooks"--><g class="entity" data-entity=".auth-hooks." data-source-line="19" data-uid="ent0016" id="entity_.auth-hooks."><rect fill="none" height="56.2174" rx="4.1667" ry="4.1667" style="stroke:#2FA4E7;stroke-width:1.0417;" width="121.9686" x="1344.2292" y="60.4167"/><rect fill="none" height="10.4167" style="stroke:#2FA4E7;stroke-width:1.0417;" width="15.625" x="1445.3644" y="65.625"/><rect fill="none" height="2.0833" style="stroke:#2FA4E7;stroke-width:1.0417;" width="4.1667" x="1443.2811" y="67.7083"/><rect fill="none" height="2.0833" style="stroke:#2FA4E7;stroke-width:1.0417;" width="4.1667" x="1443.2811" y="71.875"/><text fill="#2FA4E7" font-family="'Verdana'" font-size="12.5" lengthAdjust="spacing" textLength="69.8853" x="1365.0625" y="98.0611">auth-hooks</text></g><!--entity "auth-log"--><g class="entity" data-entity=".auth-log." data-source-line="20" data-uid="ent0017" id="entity_.auth-log."><rect fill="none" height="56.2174" rx="4.1667" ry="4.1667" style="stroke:#2FA4E7;stroke-width:1.0417;" width="104.0548" x="696.9271" y="179.1354"/><rect fill="none" height="10.4167" style="stroke:#2FA4E7;stroke-width:1.0417;" width="15.625" x="780.1485" y="184.3437"/><rect fill="none" height="2.0833" style="stroke:#2FA4E7;stroke-width:1.0417;" width="4.1667" x="778.0652" y="186.4271"/><rect fill="none" height="2.0833" style="stroke:#2FA4E7;stroke-width:1.0417;" width="4.1667" x="778.0652" y="190.5937"/><text fill="#2FA4E7" font-family="'Verdana'" font-size="12.5" lengthAdjust="spacing" textLength="51.9714" x="717.7604" y="216.7799">auth-log</text></g><!--entity "auth-rbac"--><g class="entity" data-entity=".auth-rbac." data-source-line="21" data-uid="ent0018" id="entity_.auth-rbac."><rect fill="none" height="56.2174" rx="4.1667" ry="4.1667" style="stroke:#2FA4E7;stroke-width:1.0417;" width="112.6058" x="837.4479" y="179.1354"/><rect fill="none" height="10.4167" style="stroke:#2FA4E7;stroke-width:1.0417;" width="15.625" x="929.2204" y="184.3437"/><rect fill="none" height="2.0833" style="stroke:#2FA4E7;stroke-width:1.0417;" width="4.1667" x="927.137" y="186.4271"/><rect fill="none" height="2.0833" style="stroke:#2FA4E7;stroke-width:1.0417;" width="4.1667" x="927.137" y="190.5937"/><text fill="#2FA4E7" font-family="'Verdana'" font-size="12.5" lengthAdjust="spacing" textLength="60.5225" x="858.2813" y="216.7799">auth-rbac</text></g><!--entity "auth-runner"--><g class="entity" data-entity=".auth-runner." data-source-line="22" data-uid="ent0019" id="entity_.auth-runner."><rect fill="none" height="56.2174" rx="4.1667" ry="4.1667" style="stroke:#2FA4E7;stroke-width:1.0417;" width="126.7354" x="986.6354" y="179.1354"/><rect fill="none" height="10.4167" style="stroke:#2FA4E7;stroke-width:1.0417;" width="15.625" x="1092.5375" y="184.3437"/><rect fill="none" height="2.0833" style="stroke:#2FA4E7;stroke-width:1.0417;" width="4.1667" x="1090.4542" y="186.4271"/><rect fill="none" height="2.0833" style="stroke:#2FA4E7;stroke-width:1.0417;" width="4.1667" x="1090.4542" y="190.5937"/><text fill="#2FA4E7" font-family="'Verdana'" font-size="12.5" lengthAdjust="spacing" textLength="74.6521" x="1007.4688" y="216.7799">auth-runner</text></g><!--entity "cms"--><g class="entity" data-entity=".cms." data-source-line="23" data-uid="ent0020" id="entity_.cms."><rect fill="none" height="56.2174" rx="4.1667" ry="4.1667" style="stroke:#2FA4E7;stroke-width:1.0417;" width="77.6449" x="1149.7188" y="179.1354"/><rect fill="none" height="10.4167" style="stroke:#2FA4E7;stroke-width:1.0417;" width="15.625" x="1206.5303" y="184.3437"/><rect fill="none" height="2.0833" style="stroke:#2FA4E7;stroke-width:1.0417;" width="4.1667" x="1204.4469" y="186.4271"/><rect fill="none" height="2.0833" style="stroke:#2FA4E7;stroke-width:1.0417;" width="4.1667" x="1204.4469" y="190.5937"/><text fill="#2FA4E7" font-family="'Verdana'" font-size="12.5" lengthAdjust="spacing" textLength="25.5615" x="1170.5521" y="216.7799">cms</text></g><!--entity "collaboration"--><g class="entity" data-entity=".collaboration." data-source-line="24" data-uid="ent0021" id="entity_.collaboration."><rect fill="none" height="56.2174" rx="4.1667" ry="4.1667" style="stroke:#2FA4E7;stroke-width:1.0417;" width="133.5347" x="1263.4375" y="179.1354"/><rect fill="none" height="10.4167" style="stroke:#2FA4E7;stroke-width:1.0417;" width="15.625" x="1376.1389" y="184.3437"/><rect fill="none" height="2.0833" style="stroke:#2FA4E7;stroke-width:1.0417;" width="4.1667" x="1374.0556" y="186.4271"/><rect fill="none" height="2.0833" style="stroke:#2FA4E7;stroke-width:1.0417;" width="4.1667" x="1374.0556" y="190.5937"/><text fill="#2FA4E7" font-family="'Verdana'" font-size="12.5" lengthAdjust="spacing" textLength="81.4514" x="1284.2708" y="216.7799">collaboration</text></g><!--entity "crud"--><g class="entity" data-entity=".crud." data-source-line="25" data-uid="ent0022" id="entity_.crud."><rect fill="none" height="56.2174" rx="4.1667" ry="4.1667" style="stroke:#2FA4E7;stroke-width:1.0417;" width="79.952" x="1432.9375" y="179.1354"/><rect fill="none" height="10.4167" style="stroke:#2FA4E7;stroke-width:1.0417;" width="15.625" x="1492.0562" y="184.3437"/><rect fill="none" height="2.0833" style="stroke:#2FA4E7;stroke-width:1.0417;" width="4.1667" x="1489.9728" y="186.4271"/><rect fill="none" height="2.0833" style="stroke:#2FA4E7;stroke-width:1.0417;" width="4.1667" x="1489.9728" y="190.5937"/><text fill="#2FA4E7" font-family="'Verdana'" font-size="12.5" lengthAdjust="spacing" textLength="27.8687" x="1453.7708" y="216.7799">crud</text></g><!--entity "data"--><g class="entity" data-entity=".data." data-source-line="26" data-uid="ent0023" id="entity_.data."><rect fill="none" height="56.2174" rx="4.1667" ry="4.1667" style="stroke:#2FA4E7;stroke-width:1.0417;" width="80.2389" x="697.3854" y="297.8437"/><rect fill="none" height="10.4167" style="stroke:#2FA4E7;stroke-width:1.0417;" width="15.625" x="756.7909" y="303.0521"/><rect fill="none" height="2.0833" style="stroke:#2FA4E7;stroke-width:1.0417;" width="4.1667" x="754.7076" y="305.1354"/><rect fill="none" height="2.0833" style="stroke:#2FA4E7;stroke-width:1.0417;" width="4.1667" x="754.7076" y="309.3021"/><text fill="#2FA4E7" font-family="'Verdana'" font-size="12.5" lengthAdjust="spacing" textLength="28.1555" x="718.2188" y="335.4882">data</text></g><!--entity "database"--><g class="entity" data-entity=".database." data-source-line="27" data-uid="ent0024" id="entity_.database."><rect fill="none" height="56.2174" rx="4.1667" ry="4.1667" style="stroke:#2FA4E7;stroke-width:1.0417;" width="110.0362" x="813.7292" y="297.8437"/><rect fill="none" height="10.4167" style="stroke:#2FA4E7;stroke-width:1.0417;" width="15.625" x="902.932" y="303.0521"/><rect fill="none" height="2.0833" style="stroke:#2FA4E7;stroke-width:1.0417;" width="4.1667" x="900.8487" y="305.1354"/><rect fill="none" height="2.0833" style="stroke:#2FA4E7;stroke-width:1.0417;" width="4.1667" x="900.8487" y="309.3021"/><text fill="#2FA4E7" font-family="'Verdana'" font-size="12.5" lengthAdjust="spacing" textLength="57.9529" x="834.5625" y="335.4882">database</text></g><!--entity "design-system"--><g class="entity" data-entity=".design-system." data-source-line="28" data-uid="ent0025" id="entity_.design-system."><rect fill="none" height="56.2174" rx="4.1667" ry="4.1667" style="stroke:#2FA4E7;stroke-width:1.0417;" width="143.2515" x="960.6667" y="297.8437"/><rect fill="none" height="10.4167" style="stroke:#2FA4E7;stroke-width:1.0417;" width="15.625" x="1083.0849" y="303.0521"/><rect fill="none" height="2.0833" style="stroke:#2FA4E7;stroke-width:1.0417;" width="4.1667" x="1081.0015" y="305.1354"/><rect fill="none" height="2.0833" style="stroke:#2FA4E7;stroke-width:1.0417;" width="4.1667" x="1081.0015" y="309.3021"/><text fill="#2FA4E7" font-family="'Verdana'" font-size="12.5" lengthAdjust="spacing" textLength="91.1682" x="981.5" y="335.4882">design-system</text></g><!--entity "email"--><g class="entity" data-entity=".email." data-source-line="29" data-uid="ent0026" id="entity_.email."><rect fill="none" height="56.2174" rx="4.1667" ry="4.1667" style="stroke:#2FA4E7;stroke-width:1.0417;" width="86.556" x="1140.0521" y="297.8437"/><rect fill="none" height="10.4167" style="stroke:#2FA4E7;stroke-width:1.0417;" width="15.625" x="1205.7747" y="303.0521"/><rect fill="none" height="2.0833" style="stroke:#2FA4E7;stroke-width:1.0417;" width="4.1667" x="1203.6914" y="305.1354"/><rect fill="none" height="2.0833" style="stroke:#2FA4E7;stroke-width:1.0417;" width="4.1667" x="1203.6914" y="309.3021"/><text fill="#2FA4E7" font-family="'Verdana'" font-size="12.5" lengthAdjust="spacing" textLength="34.4727" x="1160.8854" y="335.4882">email</text></g><!--entity "feature-flags"--><g class="entity" data-entity=".feature-flags." data-source-line="30" data-uid="ent0027" id="entity_.feature-flags."><rect fill="none" height="56.2174" rx="4.1667" ry="4.1667" style="stroke:#2FA4E7;stroke-width:1.0417;" width="131.9784" x="1263.1771" y="297.8437"/><rect fill="none" height="10.4167" style="stroke:#2FA4E7;stroke-width:1.0417;" width="15.625" x="1374.3221" y="303.0521"/><rect fill="none" height="2.0833" style="stroke:#2FA4E7;stroke-width:1.0417;" width="4.1667" x="1372.2388" y="305.1354"/><rect fill="none" height="2.0833" style="stroke:#2FA4E7;stroke-width:1.0417;" width="4.1667" x="1372.2388" y="309.3021"/><text fill="#2FA4E7" font-family="'Verdana'" font-size="12.5" lengthAdjust="spacing" textLength="79.895" x="1284.0104" y="335.4882">feature-flags</text></g><!--entity "internationalization"--><g class="entity" data-entity=".internationalization." data-source-line="31" data-uid="ent0028" id="entity_.internationalization."><rect fill="none" height="56.2174" rx="4.1667" ry="4.1667" style="stroke:#2FA4E7;stroke-width:1.0417;" width="173.5067" x="1432" y="297.8437"/><rect fill="none" height="10.4167" style="stroke:#2FA4E7;stroke-width:1.0417;" width="15.625" x="1584.6733" y="303.0521"/><rect fill="none" height="2.0833" style="stroke:#2FA4E7;stroke-width:1.0417;" width="4.1667" x="1582.59" y="305.1354"/><rect fill="none" height="2.0833" style="stroke:#2FA4E7;stroke-width:1.0417;" width="4.1667" x="1582.59" y="309.3021"/><text fill="#2FA4E7" font-family="'Verdana'" font-size="12.5" lengthAdjust="spacing" textLength="121.4233" x="1452.8333" y="335.4882">internationalization</text></g><!--entity "mcp"--><g class="entity" data-entity=".mcp." data-source-line="32" data-uid="ent0029" id="entity_.mcp."><rect fill="none" height="56.2174" rx="4.1667" ry="4.1667" style="stroke:#2FA4E7;stroke-width:1.0417;" width="79.067" x="703.1771" y="439.4792"/><rect fill="none" height="10.4167" style="stroke:#2FA4E7;stroke-width:1.0417;" width="15.625" x="761.4107" y="444.6875"/><rect fill="none" height="2.0833" style="stroke:#2FA4E7;stroke-width:1.0417;" width="4.1667" x="759.3274" y="446.7708"/><rect fill="none" height="2.0833" style="stroke:#2FA4E7;stroke-width:1.0417;" width="4.1667" x="759.3274" y="450.9375"/><text fill="#2FA4E7" font-family="'Verdana'" font-size="12.5" lengthAdjust="spacing" textLength="26.9836" x="724.0104" y="477.1236">mcp</text></g><!--entity "next-config"--><g class="entity" data-entity=".next-config." data-source-line="33" data-uid="ent0030" id="entity_.next-config."><rect fill="none" height="56.2174" rx="4.1667" ry="4.1667" style="stroke:#2FA4E7;stroke-width:1.0417;" width="122.7559" x="818.8333" y="439.4792"/><rect fill="none" height="10.4167" style="stroke:#2FA4E7;stroke-width:1.0417;" width="15.625" x="920.7559" y="444.6875"/><rect fill="none" height="2.0833" style="stroke:#2FA4E7;stroke-width:1.0417;" width="4.1667" x="918.6726" y="446.7708"/><rect fill="none" height="2.0833" style="stroke:#2FA4E7;stroke-width:1.0417;" width="4.1667" x="918.6726" y="450.9375"/><text fill="#2FA4E7" font-family="'Verdana'" font-size="12.5" lengthAdjust="spacing" textLength="70.6726" x="839.6667" y="477.1236">next-config</text></g><!--entity "notifications"--><g class="entity" data-entity=".notifications." data-source-line="34" data-uid="ent0031" id="entity_.notifications."><rect fill="none" height="56.2174" rx="4.1667" ry="4.1667" style="stroke:#2FA4E7;stroke-width:1.0417;" width="128.89" x="978.2604" y="439.4792"/><rect fill="none" height="10.4167" style="stroke:#2FA4E7;stroke-width:1.0417;" width="15.625" x="1086.3171" y="444.6875"/><rect fill="none" height="2.0833" style="stroke:#2FA4E7;stroke-width:1.0417;" width="4.1667" x="1084.2337" y="446.7708"/><rect fill="none" height="2.0833" style="stroke:#2FA4E7;stroke-width:1.0417;" width="4.1667" x="1084.2337" y="450.9375"/><text fill="#2FA4E7" font-family="'Verdana'" font-size="12.5" lengthAdjust="spacing" textLength="76.8066" x="999.0938" y="477.1236">notifications</text></g><!--entity "observability"--><g class="entity" data-entity=".observability." data-source-line="35" data-uid="ent0032" id="entity_.observability."><rect fill="none" height="56.2174" rx="4.1667" ry="4.1667" style="stroke:#2FA4E7;stroke-width:1.0417;" width="132.7169" x="1144.0625" y="439.4792"/><rect fill="none" height="10.4167" style="stroke:#2FA4E7;stroke-width:1.0417;" width="15.625" x="1255.946" y="444.6875"/><rect fill="none" height="2.0833" style="stroke:#2FA4E7;stroke-width:1.0417;" width="4.1667" x="1253.8627" y="446.7708"/><rect fill="none" height="2.0833" style="stroke:#2FA4E7;stroke-width:1.0417;" width="4.1667" x="1253.8627" y="450.9375"/><text fill="#2FA4E7" font-family="'Verdana'" font-size="12.5" lengthAdjust="spacing" textLength="80.6335" x="1164.8958" y="477.1236">observability</text></g><!--entity "payments"--><g class="entity" data-entity=".payments." data-source-line="36" data-uid="ent0033" id="entity_.payments."><rect fill="none" height="56.2174" rx="4.1667" ry="4.1667" style="stroke:#2FA4E7;stroke-width:1.0417;" width="114.2782" x="1313.6979" y="439.4792"/><rect fill="none" height="10.4167" style="stroke:#2FA4E7;stroke-width:1.0417;" width="15.625" x="1407.1427" y="444.6875"/><rect fill="none" height="2.0833" style="stroke:#2FA4E7;stroke-width:1.0417;" width="4.1667" x="1405.0594" y="446.7708"/><rect fill="none" height="2.0833" style="stroke:#2FA4E7;stroke-width:1.0417;" width="4.1667" x="1405.0594" y="450.9375"/><text fill="#2FA4E7" font-family="'Verdana'" font-size="12.5" lengthAdjust="spacing" textLength="62.1948" x="1334.5313" y="477.1236">payments</text></g><!--entity "rate-limit"--><g class="entity" data-entity=".rate-limit." data-source-line="37" data-uid="ent0034" id="entity_.rate-limit."><rect fill="none" height="56.2174" rx="4.1667" ry="4.1667" style="stroke:#2FA4E7;stroke-width:1.0417;" width="109.4808" x="1464.0104" y="439.4792"/><rect fill="none" height="10.4167" style="stroke:#2FA4E7;stroke-width:1.0417;" width="15.625" x="1552.6579" y="444.6875"/><rect fill="none" height="2.0833" style="stroke:#2FA4E7;stroke-width:1.0417;" width="4.1667" x="1550.5745" y="446.7708"/><rect fill="none" height="2.0833" style="stroke:#2FA4E7;stroke-width:1.0417;" width="4.1667" x="1550.5745" y="450.9375"/><text fill="#2FA4E7" font-family="'Verdana'" font-size="12.5" lengthAdjust="spacing" textLength="57.3975" x="1484.8438" y="477.1236">rate-limit</text></g><!--entity "security"--><g class="entity" data-entity=".security." data-source-line="38" data-uid="ent0035" id="entity_.security."><rect fill="none" height="56.2174" rx="4.1667" ry="4.1667" style="stroke:#2FA4E7;stroke-width:1.0417;" width="101.9918" x="696.9167" y="558.1979"/><rect fill="none" height="10.4167" style="stroke:#2FA4E7;stroke-width:1.0417;" width="15.625" x="778.0751" y="563.4062"/><rect fill="none" height="2.0833" style="stroke:#2FA4E7;stroke-width:1.0417;" width="4.1667" x="775.9918" y="565.4896"/><rect fill="none" height="2.0833" style="stroke:#2FA4E7;stroke-width:1.0417;" width="4.1667" x="775.9918" y="569.6562"/><text fill="#2FA4E7" font-family="'Verdana'" font-size="12.5" lengthAdjust="spacing" textLength="49.9084" x="717.75" y="595.8424">security</text></g><!--entity "seo"--><g class="entity" data-entity=".seo." data-source-line="39" data-uid="ent0036" id="entity_.seo."><rect fill="none" height="56.2174" rx="4.1667" ry="4.1667" style="stroke:#2FA4E7;stroke-width:1.0417;" width="73.9339" x="834.9063" y="558.1979"/><rect fill="none" height="10.4167" style="stroke:#2FA4E7;stroke-width:1.0417;" width="15.625" x="888.0068" y="563.4062"/><rect fill="none" height="2.0833" style="stroke:#2FA4E7;stroke-width:1.0417;" width="4.1667" x="885.9235" y="565.4896"/><rect fill="none" height="2.0833" style="stroke:#2FA4E7;stroke-width:1.0417;" width="4.1667" x="885.9235" y="569.6562"/><text fill="#2FA4E7" font-family="'Verdana'" font-size="12.5" lengthAdjust="spacing" textLength="21.8506" x="855.7396" y="595.8424">seo</text></g><!--entity "storage"--><g class="entity" data-entity=".storage." data-source-line="40" data-uid="ent0037" id="entity_.storage."><rect fill="none" height="56.2174" rx="4.1667" ry="4.1667" style="stroke:#2FA4E7;stroke-width:1.0417;" width="99.5687" x="945.0104" y="558.1979"/><rect fill="none" height="10.4167" style="stroke:#2FA4E7;stroke-width:1.0417;" width="15.625" x="1023.7458" y="563.4062"/><rect fill="none" height="2.0833" style="stroke:#2FA4E7;stroke-width:1.0417;" width="4.1667" x="1021.6624" y="565.4896"/><rect fill="none" height="2.0833" style="stroke:#2FA4E7;stroke-width:1.0417;" width="4.1667" x="1021.6624" y="569.6562"/><text fill="#2FA4E7" font-family="'Verdana'" font-size="12.5" lengthAdjust="spacing" textLength="47.4854" x="965.8438" y="595.8424">storage</text></g><!--entity "testing"--><g class="entity" data-entity=".testing." data-source-line="41" data-uid="ent0038" id="entity_.testing."><rect fill="none" height="56.2174" rx="4.1667" ry="4.1667" style="stroke:#2FA4E7;stroke-width:1.0417;" width="95.4183" x="1081.4583" y="558.1979"/><rect fill="none" height="10.4167" style="stroke:#2FA4E7;stroke-width:1.0417;" width="15.625" x="1156.0433" y="563.4062"/><rect fill="none" height="2.0833" style="stroke:#2FA4E7;stroke-width:1.0417;" width="4.1667" x="1153.96" y="565.4896"/><rect fill="none" height="2.0833" style="stroke:#2FA4E7;stroke-width:1.0417;" width="4.1667" x="1153.96" y="569.6562"/><text fill="#2FA4E7" font-family="'Verdana'" font-size="12.5" lengthAdjust="spacing" textLength="43.335" x="1102.2917" y="595.8424">testing</text></g><!--entity "trigger"--><g class="entity" data-entity=".trigger." data-source-line="42" data-uid="ent0039" id="entity_.trigger."><rect fill="none" height="56.2174" rx="4.1667" ry="4.1667" style="stroke:#2FA4E7;stroke-width:1.0417;" width="94.2952" x="1213.2708" y="558.1979"/><rect fill="none" height="10.4167" style="stroke:#2FA4E7;stroke-width:1.0417;" width="15.625" x="1286.7327" y="563.4062"/><rect fill="none" height="2.0833" style="stroke:#2FA4E7;stroke-width:1.0417;" width="4.1667" x="1284.6494" y="565.4896"/><rect fill="none" height="2.0833" style="stroke:#2FA4E7;stroke-width:1.0417;" width="4.1667" x="1284.6494" y="569.6562"/><text fill="#2FA4E7" font-family="'Verdana'" font-size="12.5" lengthAdjust="spacing" textLength="42.2119" x="1234.1042" y="595.8424">trigger</text></g><!--entity "trigger-rules"--><g class="entity" data-entity=".trigger-rules." data-source-line="43" data-uid="ent0040" id="entity_.trigger-rules."><rect fill="none" height="56.2174" rx="4.1667" ry="4.1667" style="stroke:#2FA4E7;stroke-width:1.0417;" width="129.5431" x="1343.5625" y="558.1979"/><rect fill="none" height="10.4167" style="stroke:#2FA4E7;stroke-width:1.0417;" width="15.625" x="1452.2722" y="563.4062"/><rect fill="none" height="2.0833" style="stroke:#2FA4E7;stroke-width:1.0417;" width="4.1667" x="1450.1889" y="565.4896"/><rect fill="none" height="2.0833" style="stroke:#2FA4E7;stroke-width:1.0417;" width="4.1667" x="1450.1889" y="569.6562"/><text fill="#2FA4E7" font-family="'Verdana'" font-size="12.5" lengthAdjust="spacing" textLength="77.4597" x="1364.3958" y="595.8424">trigger-rules</text></g><!--entity "view"--><g class="entity" data-entity=".view." data-source-line="44" data-uid="ent0041" id="entity_.view."><rect fill="none" height="56.2174" rx="4.1667" ry="4.1667" style="stroke:#2FA4E7;stroke-width:1.0417;" width="80.8675" x="707.4792" y="676.9167"/><rect fill="none" height="10.4167" style="stroke:#2FA4E7;stroke-width:1.0417;" width="15.625" x="767.5133" y="682.125"/><rect fill="none" height="2.0833" style="stroke:#2FA4E7;stroke-width:1.0417;" width="4.1667" x="765.43" y="684.2083"/><rect fill="none" height="2.0833" style="stroke:#2FA4E7;stroke-width:1.0417;" width="4.1667" x="765.43" y="688.375"/><text fill="#2FA4E7" font-family="'Verdana'" font-size="12.5" lengthAdjust="spacing" textLength="28.7842" x="728.3125" y="714.5611">view</text></g><!--entity "view-builder"--><g class="entity" data-entity=".view-builder." data-source-line="45" data-uid="ent0042" id="entity_.view-builder."><rect fill="none" height="56.2174" rx="4.1667" ry="4.1667" style="stroke:#2FA4E7;stroke-width:1.0417;" width="128.9449" x="825.1146" y="676.9167"/><rect fill="none" height="10.4167" style="stroke:#2FA4E7;stroke-width:1.0417;" width="15.625" x="933.2262" y="682.125"/><rect fill="none" height="2.0833" style="stroke:#2FA4E7;stroke-width:1.0417;" width="4.1667" x="931.1428" y="684.2083"/><rect fill="none" height="2.0833" style="stroke:#2FA4E7;stroke-width:1.0417;" width="4.1667" x="931.1428" y="688.375"/><text fill="#2FA4E7" font-family="'Verdana'" font-size="12.5" lengthAdjust="spacing" textLength="76.8616" x="845.9479" y="714.5611">view-builder</text></g><!--entity "webhooks"--><g class="entity" data-entity=".webhooks." data-source-line="46" data-uid="ent0043" id="entity_.webhooks."><rect fill="none" height="56.2174" rx="4.1667" ry="4.1667" style="stroke:#2FA4E7;stroke-width:1.0417;" width="114.9007" x="990.4688" y="676.9167"/><rect fill="none" height="10.4167" style="stroke:#2FA4E7;stroke-width:1.0417;" width="15.625" x="1084.5361" y="682.125"/><rect fill="none" height="2.0833" style="stroke:#2FA4E7;stroke-width:1.0417;" width="4.1667" x="1082.4528" y="684.2083"/><rect fill="none" height="2.0833" style="stroke:#2FA4E7;stroke-width:1.0417;" width="4.1667" x="1082.4528" y="688.375"/><text fill="#2FA4E7" font-family="'Verdana'" font-size="12.5" lengthAdjust="spacing" textLength="62.8174" x="1011.3021" y="714.5611">webhooks</text></g><!--entity developer-plugins (R)--><g class="entity" data-entity="developer-plugins .R." data-source-line="50" data-uid="ent0045" id="entity_developer-plugins .R."><rect fill="none" height="56.2174" rx="4.1667" ry="4.1667" style="stroke:#2FA4E7;stroke-width:1.0417;" width="186.7757" x="33.6979" y="439.4792"/><rect fill="none" height="10.4167" style="stroke:#2FA4E7;stroke-width:1.0417;" width="15.625" x="199.6403" y="444.6875"/><rect fill="none" height="2.0833" style="stroke:#2FA4E7;stroke-width:1.0417;" width="4.1667" x="197.557" y="446.7708"/><rect fill="none" height="2.0833" style="stroke:#2FA4E7;stroke-width:1.0417;" width="4.1667" x="197.557" y="450.9375"/><text fill="#2FA4E7" font-family="'Verdana'" font-size="12.5" lengthAdjust="spacing" textLength="134.6924" x="54.5313" y="477.1236">developer-plugins (R)</text></g><!--entity business-plugins (R)--><g class="entity" data-entity="business-plugins .R." data-source-line="51" data-uid="ent0046" id="entity_business-plugins .R."><rect fill="none" height="56.2174" rx="4.1667" ry="4.1667" style="stroke:#2FA4E7;stroke-width:1.0417;" width="178.658" x="256.5" y="439.4792"/><rect fill="none" height="10.4167" style="stroke:#2FA4E7;stroke-width:1.0417;" width="15.625" x="414.3247" y="444.6875"/><rect fill="none" height="2.0833" style="stroke:#2FA4E7;stroke-width:1.0417;" width="4.1667" x="412.2414" y="446.7708"/><rect fill="none" height="2.0833" style="stroke:#2FA4E7;stroke-width:1.0417;" width="4.1667" x="412.2414" y="450.9375"/><text fill="#2FA4E7" font-family="'Verdana'" font-size="12.5" lengthAdjust="spacing" textLength="126.5747" x="277.3333" y="477.1236">business-plugins (R)</text></g><!--entity fintech-plugins (R)--><g class="entity" data-entity="fintech-plugins .R." data-source-line="52" data-uid="ent0047" id="entity_fintech-plugins .R."><rect fill="none" height="56.2174" rx="4.1667" ry="4.1667" style="stroke:#2FA4E7;stroke-width:1.0417;" width="167.3604" x="471.5313" y="439.4792"/><rect fill="none" height="10.4167" style="stroke:#2FA4E7;stroke-width:1.0417;" width="15.625" x="618.0583" y="444.6875"/><rect fill="none" height="2.0833" style="stroke:#2FA4E7;stroke-width:1.0417;" width="4.1667" x="615.975" y="446.7708"/><rect fill="none" height="2.0833" style="stroke:#2FA4E7;stroke-width:1.0417;" width="4.1667" x="615.975" y="450.9375"/><text fill="#2FA4E7" font-family="'Verdana'" font-size="12.5" lengthAdjust="spacing" textLength="115.2771" x="492.3646" y="477.1236">fintech-plugins (R)</text></g><!--entity insurtech-plugins (R)--><g class="entity" data-entity="insurtech-plugins .R." data-source-line="53" data-uid="ent0048" id="entity_insurtech-plugins .R."><rect fill="none" height="56.2174" rx="4.1667" ry="4.1667" style="stroke:#2FA4E7;stroke-width:1.0417;" width="182.5338" x="35.8125" y="558.1979"/><rect fill="none" height="10.4167" style="stroke:#2FA4E7;stroke-width:1.0417;" width="15.625" x="197.5129" y="563.4062"/><rect fill="none" height="2.0833" style="stroke:#2FA4E7;stroke-width:1.0417;" width="4.1667" x="195.4296" y="565.4896"/><rect fill="none" height="2.0833" style="stroke:#2FA4E7;stroke-width:1.0417;" width="4.1667" x="195.4296" y="569.6562"/><text fill="#2FA4E7" font-family="'Verdana'" font-size="12.5" lengthAdjust="spacing" textLength="130.4504" x="56.6458" y="595.8424">insurtech-plugins (R)</text></g><!--entity embedded-apps (R)--><g class="entity" data-entity="embedded-apps .R." data-source-line="54" data-uid="ent0049" id="entity_embedded-apps .R."><rect fill="none" height="56.2174" rx="4.1667" ry="4.1667" style="stroke:#2FA4E7;stroke-width:1.0417;" width="176.0335" x="254.6875" y="558.1979"/><rect fill="none" height="10.4167" style="stroke:#2FA4E7;stroke-width:1.0417;" width="15.625" x="409.8877" y="563.4062"/><rect fill="none" height="2.0833" style="stroke:#2FA4E7;stroke-width:1.0417;" width="4.1667" x="407.8044" y="565.4896"/><rect fill="none" height="2.0833" style="stroke:#2FA4E7;stroke-width:1.0417;" width="4.1667" x="407.8044" y="569.6562"/><text fill="#2FA4E7" font-family="'Verdana'" font-size="12.5" lengthAdjust="spacing" textLength="123.9502" x="275.5208" y="595.8424">embedded-apps (R)</text></g><!--entity integrations (R)--><g class="entity" data-entity="integrations .R." data-source-line="55" data-uid="ent0050" id="entity_integrations .R."><rect fill="none" height="56.2174" rx="4.1667" ry="4.1667" style="stroke:#2FA4E7;stroke-width:1.0417;" width="149.6724" x="466.8333" y="558.1979"/><rect fill="none" height="10.4167" style="stroke:#2FA4E7;stroke-width:1.0417;" width="15.625" x="595.6724" y="563.4062"/><rect fill="none" height="2.0833" style="stroke:#2FA4E7;stroke-width:1.0417;" width="4.1667" x="593.5891" y="565.4896"/><rect fill="none" height="2.0833" style="stroke:#2FA4E7;stroke-width:1.0417;" width="4.1667" x="593.5891" y="569.6562"/><text fill="#2FA4E7" font-family="'Verdana'" font-size="12.5" lengthAdjust="spacing" textLength="97.5891" x="487.6667" y="595.8424">integrations (R)</text></g><!--SRC=[TPF1SjmW38Rl-nJEdfe3BzDh9mU1VxEQ1S60s6JRsNUlDx6DFKrzqlzX8I5-NlI2YC6Xj00Iave65fnEcToLF8OpvLpFmv_JC7-_AFFR6kKbUeTTsHXPJ2P167xyV5teY9kc5EeEDJQsSHXHTZ1IkK9p88Sl-jXriGIzapFn-MqDXS9TsTLECfihxbqtlHo48KlkI2ufNUiHXUIFeFoJLPe8oiPSx5ku50BPL4WvIQUbZPiOIUaWB5LqWCfUJBrNHTme8d7Or0JILc2cGBwNPb4K-InCWNyVEuWkRx7WGurBCd4_gIJbYTrdKjyosOfo8yk1jGysqpr2jFysdnOcS6JTK8LhPPzKaNgiyu1yFxEYAajlHWjxlnlmeitJhxtgZV5-4Ak_DZYxTBtWlQzsfjkiDHiM8UMvI0xDi-oTQrkTdqUjtonDpw6xopShishbFsk85kE8qJpVsI57uR-ii-37Nm00]--></g></svg>